Coordinates
nRows=17
nColumns=24

# SIMM Motion File Header:
name Coordinates
datacolumns 24
datarows 17
otherdata 1
range 0.19667000000000001000 0.21267000000000003000
endheader
time	pelvis_tx	pelvis_ty	pelvis_tz	pelvis_tilt	pelvis_list	pelvis_rotation	hip_flexion_r	hip_adduction_r	hip_rotation_r	knee_angle_r	ankle_angle_r	subtalar_angle_r	mtp_angle_r	hip_flexion_l	hip_adduction_l	hip_rotation_l	knee_angle_l	ankle_angle_l	subtalar_angle_l	mtp_angle_l	lumbar_extension	lumbar_bending	lumbar_rotation
      0.19667000000000001000	      0.66180794692443246000	      0.94957628798863047000	     -0.24548794994625533000	      4.51496940450200060000	      6.23900461324906710000	     -9.85712782792352190000	     -0.43052358179250433000	     -9.16335662781688680000	      6.02874692219937280000	    -56.95079280181789700000	     -5.44403370315518220000	      0.00000000000000061296	     -0.00000000000000088912	      9.47924037140250240000	      6.79854749996499930000	      5.63308050196648310000	    -21.61073850370053200000	      8.19904263016094430000	     -0.00000000000001234380	     -0.00000000000001934469	     -8.30154541688747470000	    -10.43050143640693900000	      8.50674340177276460000
      0.19767000000000001000	      0.66321585916947223000	      0.94980327848437063000	     -0.24550282406531437000	      4.51164720356500570000	      6.20564767037967520000	     -9.82825857537818410000	     -0.23481191935390805000	     -9.08828991902299070000	      6.00389901840625570000	    -57.06682250056675100000	     -5.19429841388795750000	      0.00000000000000062577	     -0.00000000000000089560	      9.33298866968268470000	      6.79210937876072940000	      5.70565179511813090000	    -21.52460632431977700000	      8.25424940286586660000	     -0.00000000000001244273	     -0.00000000000002012624	     -8.34149654615051620000	    -10.39767460231791500000	      8.46807026239128650000
      0.19867000000000001000	      0.66462319860136443000	      0.95003185407135060000	     -0.24551974725207812000	      4.51024625402545180000	      6.17296066926586030000	     -9.79831077012624090000	     -0.04199121457823833100	     -9.01493364878813710000	      5.97706496276043890000	    -57.17781511856451700000	     -4.96039762787494440000	      0.00000000000000063842	     -0.00000000000000090404	      9.18557393863733120000	      6.78682094621388380000	      5.77640893294246190000	    -21.44078036884844700000	      8.31087038691734210000	     -0.00000000000001253569	     -0.00000000000002094222	     -8.38383519294468730000	    -10.36558658106165600000	      8.42795282258290610000
      0.19967000000000001000	      0.66602976289309412000	      0.95026257374362322000	     -0.24553944271438025000	      4.51144630430765490000	      6.14118045490205940000	     -9.76690443397660780000	      0.14691558816820860000	     -8.94389319638973390000	      5.94754426181663830000	    -57.28198553305259800000	     -4.74792636269462780000	      0.00000000000000065086	     -0.00000000000000091536	      9.03658372207082650000	      6.78308794647559130000	      5.84470627705906850000	    -21.36007469810419600000	      8.36941149563308610000	     -0.00000000000001262062	     -0.00000000000002180454	     -8.42940545625717520000	    -10.33449837835804400000	      8.38588198991573820000
      0.20067000000000002000	      0.66743632718482382000	      0.95049329341589572000	     -0.24555913817668237000	      4.51264635458985720000	      6.10940024053825860000	     -9.73549809782697650000	      0.33582239091465554000	     -8.87285274399132890000	      5.91802356087283780000	    -57.38615594754068600000	     -4.53545509751431020000	      0.00000000000000066329	     -0.00000000000000092668	      8.88759350550432360000	      6.77935494673729890000	      5.91300362117567510000	    -21.27936902735994100000	      8.42795260434882820000	     -0.00000000000001270554	     -0.00000000000002266687	     -8.47497571956966310000	    -10.30341017565443300000	      8.34381115724857030000
      0.20167000000000002000	      0.66884166765036479000	      0.95072521326597015000	     -0.24558263909522804000	      4.51678938911558880000	      6.07887889090400970000	     -9.70229906088418660000	      0.51978067926521010000	     -8.80515838641873750000	      5.88507494469830570000	    -57.47861777581010000000	     -4.35112587361326500000	      0.00000000000000067548	     -0.00000000000000095404	      8.73713511660242760000	      6.77735839086848110000	      5.97586206033413790000	    -21.20316181551807600000	      8.48980174937280200000	     -0.00000000000001276464	     -0.00000000000002365509	     -8.52411926200227650000	    -10.27343022854008000000	      8.29947854782108510000
      0.20267000000000002000	      0.67024690505671858000	      0.95095723418378575000	     -0.24560646047368115000	      4.52118025422928230000	      6.04846355107486830000	     -9.66894905945948220000	      0.70332225004924409000	     -8.73774580563441110000	      5.85183766158680910000	    -57.57009361653535300000	     -4.16916650903172760000	      0.00000000000000068764	     -0.00000000000000098275	      8.58655309196788790000	      6.77550806205000540000	      6.03826248582276470000	    -21.12733342178138300000	      8.55192946625290240000	     -0.00000000000001282155	     -0.00000000000002465392	     -8.57356371255807840000	    -10.24354360833867300000	      8.25495547272407390000
      0.20367000000000002000	      0.67165173472592943000	      0.95118821697523781000	     -0.24563118213469129000	      4.52577176348543820000	      6.01832556158195600000	     -9.63530025225399280000	      0.88600109431966401000	     -8.67118212816209070000	      5.81792029023981260000	    -57.65707533834844900000	     -3.99189333053929470000	      0.00000000000000070228	     -0.00000000000000101698	      8.43614979095867490000	      6.77374304057619450000	      6.09790386462535940000	    -21.05262465869689900000	      8.61452301002659660000	     -0.00000000000001285154	     -0.00000000000002568576	     -8.62319414593345530000	    -10.21369551654201200000	      8.21018343427497580000
      0.20467000000000002000	      0.67305600668549270000	      0.95141777980017905000	     -0.24565713521716029000	      4.53063771713762620000	      5.98856693649301610000	     -9.60124273353053150000	      1.06749988691220300000	     -8.60577959476252730000	      5.78307268289016200000	    -57.73790992954807400000	     -3.82102999534024160000	      0.00000000000000072033	     -0.00000000000000105877	      8.28599095109748160000	      6.77209470390761230000	      6.15377137347052640000	    -20.97944734504499600000	      8.67775371957497650000	     -0.00000000000001284470	     -0.00000000000002676278	     -8.67307896970350890000	    -10.18390012453833300000	      8.16507085961106860000
      0.20567000000000002000	      0.67446027864505598000	      0.95164734262512030000	     -0.24568308829962929000	      4.53550367078981420000	      5.95880831140407620000	     -9.56718521480707020000	      1.24899867950474210000	     -8.54037706136296390000	      5.74822507554051130000	    -57.81874452074770700000	     -3.65016666014118840000	      0.00000000000000073837	     -0.00000000000000110055	      8.13583211123628840000	      6.77044636723903000000	      6.20963888231569430000	    -20.90627003139309200000	      8.74098442912335650000	     -0.00000000000001283786	     -0.00000000000002783979	     -8.72296379347356420000	    -10.15410473253465400000	      8.11995828494716320000
      0.20667000000000002000	      0.67586404071839135000	      0.95187294174185166000	     -0.24570940838748487000	      4.53949098574705800000	      5.92911255158574590000	     -9.53338066279760810000	      1.43030051515751680000	     -8.47565142877815520000	      5.71335499521642020000	    -57.89166268794673400000	     -3.47521920333556890000	      0.00000000000000073814	     -0.00000000000000108976	      7.98664566731743970000	      6.76791045510767120000	      6.25959675811092800000	    -20.83333999684574100000	      8.80209167444426120000	     -0.00000000000001283369	     -0.00000000000002891969	     -8.77153426727967300000	    -10.12373948921772300000	      8.07553635390745760000
      0.20767000000000002000	      0.67726775985388088000	      0.95209820707217618000	     -0.24573575938109907000	      4.54340430997708200000	      5.89942208569211420000	     -9.49959741327714190000	      1.61158576494025410000	     -8.41098279844447560000	      5.67848302242875920000	    -57.96391420801065700000	     -3.29992782003381180000	      0.00000000000000073637	     -0.00000000000000107453	      7.83754110948366200000	      6.76529979967814920000	      6.30905697992224200000	    -20.76043078583015600000	      8.86302010148261130000	     -0.00000000000001282974	     -0.00000000000002999984	     -8.81999405883355080000	    -10.09332625835674500000	      8.03117258240966510000
      0.20867000000000002000	      0.67867128827296197000	      0.95231906495283392000	     -0.24576165926561533000	      4.54579261359926350000	      5.86954909041085050000	     -9.46639741273306610000	      1.79368941339110630000	     -8.34628854071631030000	      5.64426884026138520000	    -58.03047198415198000000	     -3.11477336750853870000	      0.00000000000000072648	     -0.00000000000000104787	      7.68970446786753570000	      6.76143759864642660000	      6.35377487077914700000	    -20.68658729143649600000	      8.91990916167577020000	     -0.00000000000001283428	     -0.00000000000003107103	     -8.86633040231182610000	    -10.06213807944106100000	      7.98792689414408310000
      0.20967000000000002000	      0.68007475311990695000	      0.95253845368360279000	     -0.24578740878043226000	      4.54767257701883130000	      5.83961525200037550000	     -9.43339182851445560000	      1.97606586139799710000	     -8.28158574052331710000	      5.61027392163410530000	    -58.09513184565243900000	     -2.92633122524209410000	      0.00000000000000071389	     -0.00000000000000101740	      7.54229046499062770000	      6.75715821574730400000	      6.39691198465124970000	    -20.61243236925014700000	      8.97545176625386710000	     -0.00000000000001284165	     -0.00000000000003213923	     -8.91195892976490000000	    -10.03069158450714200000	      7.94505390028923660000
      0.21067000000000002000	      0.68147819485911532000	      0.95275577212317486000	     -0.24581296915162829000	      4.54865663669550550000	      5.80957188252864490000	     -9.40056017989110160000	      2.15914464893177360000	     -8.21672553799040630000	      5.57657148982129590000	    -58.15794854325144300000	     -2.73414969540587770000	      0.00000000000000069877	     -0.00000000000000097554	      7.39571917760151280000	      6.75232229250746660000	      6.43849177313929120000	    -20.53794420091209000000	      9.02924750709781600000	     -0.00000000000001285054	     -0.00000000000003320548	     -8.95641318829677860000	     -9.99887190690629700000	      7.90260196068191690000
      0.21167000000000002000	      0.68288156727511373000	      0.95296687968915672000	     -0.24583796209196157000	      4.54695298514350110000	      5.77919991987314670000	     -9.36825033805352800000	      2.34433045504620810000	     -8.15139312843774100000	      5.54374651845189350000	    -58.21523574914606800000	     -2.53075000286034690000	      0.00000000000000067607	     -0.00000000000000089954	      7.25167603667578040000	      6.74581674824548470000	      6.47539958547515320000	    -20.46245629411891200000	      9.07780265673931730000	     -0.00000000000001286398	     -0.00000000000003426589	     -8.99734464006507300000	     -9.96593268130467540000	      7.86141318381717640000
      0.21267000000000003000	      0.68428493969111215000	      0.95317798725513858000	     -0.24586295503229483000	      4.54524933359149670000	      5.74882795721764770000	     -9.33594049621595450000	      2.52951626116064210000	     -8.08606071888507750000	      5.51092154708249100000	    -58.27252295504069200000	     -2.32735031031481650000	      0.00000000000000065336	     -0.00000000000000082354	      7.10763289575004810000	      6.73931120398350280000	      6.51230739781101420000	    -20.38696838732573700000	      9.12635780638082040000	     -0.00000000000001287741	     -0.00000000000003532631	     -9.03827609183336910000	     -9.93299345570305550000	      7.82022440695243580000
